<svg data-v-fde0c5aa="" xmlns="http://www.w3.org/2000/svg" viewBox="0 0 300 300" class="iconAboveSlogan"><!----><defs data-v-fde0c5aa=""><!----></defs><rect data-v-fde0c5aa="" fill="transparent" x="0" y="0" width="300px" height="300px" class="logo-background-square"></rect><defs data-v-fde0c5aa=""><!----></defs><g data-v-fde0c5aa="" id="9f56dcea-1716-462c-841c-9966635b9e80" fill="#000000" transform="matrix(4.40976911830614,0,0,4.40976911830614,16.56038336799838,146.85705376859323)"><path d="M0.78 8.64C0.78 11.14 2.42 13.51 5.66 13.51C8.99 13.51 10.72 10.75 10.72 7.88C10.72 5.54 9.09 3.29 5.85 3.29C2.52 3.29 0.78 5.88 0.78 8.64ZM2.59 8.30C2.59 6.19 3.64 4.06 5.64 4.06C7.78 4.06 8.92 6.15 8.92 8.22C8.92 10.46 7.85 12.74 5.85 12.74C3.74 12.74 2.59 10.54 2.59 8.30ZM12.45 13.30C12.78 13.37 13.15 13.44 13.44 13.44C13.93 13.44 14.32 13.24 14.32 12.49C14.32 11.16 14.27 10.21 14.27 8.95C14.27 7.63 15.19 6.94 15.95 6.94C17.15 6.94 17.18 7.87 17.18 8.83C17.18 10.26 17.14 11.10 17.14 12.31C17.14 13.15 17.78 13.44 18.40 13.44C19.60 13.44 19.95 12.57 19.95 12.57L19.89 12.53C19.89 12.53 19.64 12.73 19.36 12.73C18.68 12.73 18.66 11.89 18.66 11.26C18.66 10.05 18.72 9.13 18.72 8.11C18.72 7.08 18.52 6.09 16.67 6.09C15.67 6.09 14.55 6.57 14.22 7.29L14.17 7.28C14.17 7.28 14.22 7.11 14.22 6.93C14.22 6.50 13.78 6.16 13.13 6.16C12.91 6.16 12.68 6.22 12.45 6.29C12.45 6.29 12.66 6.41 12.73 7.77C12.75 8.44 12.78 9.17 12.78 9.87C12.78 12.38 12.54 13.26 12.45 13.30ZM21.34 13.29C21.34 13.29 21.66 13.43 21.95 13.43C22.44 13.43 22.47 13.23 22.47 12.47C22.47 10.18 22.34 7.62 22.34 5.43L22.40 5.38C22.57 5.77 22.90 6.36 23.31 7.06L24.47 9.07C24.92 9.84 25.40 10.67 25.72 11.41C25.76 11.49 25.89 11.51 26.01 11.51L26.24 11.51C26.24 11.51 26.68 10.04 27.09 9.27L28.50 6.57C28.81 5.98 29.06 5.53 29.15 5.31L29.20 5.35L29.20 12.49C29.20 13.24 29.62 13.44 30.11 13.44C30.41 13.44 30.70 13.36 31.05 13.30C30.81 11.44 30.81 9.60 30.81 7.77C30.81 6.59 30.83 4.68 30.83 3.46C30.48 3.39 30.20 3.39 29.97 3.39C29.47 3.39 29.18 3.60 28.90 4.14C27.99 5.91 26.61 8.39 26.32 9.18L26.25 9.18C26.15 8.92 25.91 8.44 25.59 7.87L23.80 4.70C23.59 4.33 23.38 3.98 23.21 3.65C23.09 3.43 22.61 3.39 22.13 3.39C21.84 3.39 21.49 3.44 21.32 3.50C21.32 3.50 21.39 3.61 21.46 4.97C21.49 5.64 21.55 8.58 21.55 9.42C21.55 12.91 21.34 13.29 21.34 13.29ZM32.89 9.98C32.89 12.04 34.27 13.51 36.15 13.51C38.50 13.51 38.98 11.73 38.98 11.73L38.91 11.66C38.91 11.66 37.86 12.46 36.71 12.46C35.27 12.46 34.48 11.31 34.48 9.63L34.54 9.60C34.54 9.60 35.27 10.00 36.08 10.00C37.31 10.00 38.78 9.49 38.78 8.09C38.78 7.14 38.05 6.09 36.20 6.09C34.16 6.09 32.89 8.05 32.89 9.98ZM34.50 8.96C34.50 8.43 35.03 6.73 36.02 6.73C36.82 6.73 37.11 7.42 37.11 8.08C37.11 8.95 36.43 9.30 35.80 9.30C35.21 9.30 34.50 9.07 34.50 8.96ZM40.43 13.30C40.77 13.37 41.13 13.44 41.43 13.44C41.92 13.44 42.31 13.24 42.31 12.49C42.31 11.16 42.25 10.21 42.25 8.95C42.25 7.67 43.06 7.01 43.65 7.01C44.86 7.01 44.88 7.91 44.88 8.83C44.88 10.26 44.84 11.16 44.84 12.36C44.84 13.33 45.36 13.37 45.86 13.44C46.09 13.19 46.41 12.98 46.41 11.98C46.41 11.90 46.38 9.51 46.38 9.48C46.38 8.81 46.59 7.01 47.87 7.01C49.03 7.01 49.06 7.91 49.06 8.83C49.06 10.26 49.01 11.10 49.01 12.31C49.01 13.15 49.66 13.44 50.27 13.44C51.48 13.44 51.83 12.57 51.83 12.57L51.77 12.53C51.77 12.53 51.52 12.73 51.24 12.73C50.55 12.73 50.54 11.89 50.54 11.26C50.54 10.05 50.60 9.13 50.60 8.11C50.60 7.13 50.40 6.16 48.55 6.16C47.66 6.16 46.65 6.61 46.34 7.29L46.28 7.28C46.23 6.66 45.70 6.16 44.38 6.16C43.48 6.16 42.48 6.61 42.21 7.29L42.15 7.28C42.15 7.28 42.21 7.11 42.21 6.93C42.21 6.50 41.76 6.16 41.12 6.16C40.89 6.16 40.67 6.22 40.43 6.29C40.43 6.29 40.64 6.41 40.71 7.77C40.74 8.44 40.77 9.17 40.77 9.87C40.77 12.38 40.53 13.26 40.43 13.30ZM52.49 9.97C52.49 11.79 53.69 13.51 56.04 13.51C58.45 13.51 59.74 11.51 59.74 9.42C59.74 7.73 58.53 6.09 56.18 6.09C53.76 6.09 52.49 7.97 52.49 9.97ZM54.19 9.73C54.19 8.23 54.78 6.73 56.03 6.73C57.37 6.73 58.03 8.20 58.03 9.67C58.03 11.27 57.43 12.87 56.18 12.87C54.85 12.87 54.19 11.31 54.19 9.73Z"></path></g><defs data-v-fde0c5aa=""><linearGradient data-v-fde0c5aa="" gradientTransform="rotate(25)" id="ef71c452-9220-40d0-a826-e8814bc207d7" x1="0%" y1="0%" x2="100%" y2="0%"><stop data-v-fde0c5aa="" offset="0%" stop-color="#87544E" stop-opacity="1"></stop><stop data-v-fde0c5aa="" offset="100%" stop-color="#87544E" stop-opacity="1"></stop></linearGradient></defs><g data-v-fde0c5aa="" id="83e0866f-67ad-4a14-a932-f767470dfa92" stroke="none" fill="url(#ef71c452-9220-40d0-a826-e8814bc207d7)" transform="matrix(0.7747344082642675,0,0,0.7747344082642675,111.263278109098,70.36662061072961)"><path d="M66.327 94.224h-32.67l2.847-10.396h26.975zM54.383 5.776h-8.688L24.758 56.354l11.984 25.5h26.5l12-25.484L54.383 5.776zM61.32 78.86H38.743L28.039 56.276 47.66 8.86h.833v42.312a3.249 3.249 0 0 0-1.763 2.882 3.263 3.263 0 0 0 6.526 0c0-1.259-.72-2.338-1.763-2.882V8.86h.834l19.635 47.417L61.32 78.86z"></path></g><defs data-v-fde0c5aa=""><!----></defs><g data-v-fde0c5aa="" id="760a42de-8ff3-40ae-8f91-73632793d1e2" fill="#000000" transform="matrix(0.8019740598713065,0,0,0.8019740598713065,52.00277607905568,214.1634490379752)"><path d="M0.62 8.69L0.62 8.69L0.62 8.69Q0.62 6.34 2.03 4.84L2.03 4.84L2.03 4.84Q3.44 3.33 6.03 3.33L6.03 3.33L6.03 3.33Q7.24 3.33 8.20 3.68L8.20 3.68L8.20 3.68Q9.17 4.03 9.73 4.54L9.73 4.54L9.73 4.54Q10.29 5.05 10.67 5.71L10.67 5.71L10.67 5.71Q11.05 6.37 11.19 6.92L11.19 6.92L11.19 6.92Q11.33 7.48 11.33 7.95L11.33 7.95L11.33 7.95Q11.33 9.86 10.58 11.16L10.58 11.16L10.58 11.16Q9.84 12.47 8.63 13.07L8.63 13.07L8.63 13.07Q7.42 13.66 5.84 13.66L5.84 13.66L5.84 13.66Q4.17 13.66 2.96 12.94L2.96 12.94L2.96 12.94Q1.75 12.21 1.18 11.10L1.18 11.10L1.18 11.10Q0.62 10.00 0.62 8.69ZM1.85 7.98L1.85 7.98L1.85 7.98Q1.85 8.54 2.00 9.19L2.00 9.19L2.00 9.19Q2.16 9.84 2.51 10.54L2.51 10.54L2.51 10.54Q2.86 11.23 3.35 11.78L3.35 11.78L3.35 11.78Q3.85 12.33 4.61 12.69L4.61 12.69L4.61 12.69Q5.38 13.05 6.29 13.05L6.29 13.05L6.29 13.05Q6.76 13.05 7.29 12.90L7.29 12.90L7.29 12.90Q7.81 12.75 8.33 12.45L8.33 12.45L8.33 12.45Q8.85 12.14 9.25 11.70L9.25 11.70L9.25 11.70Q9.66 11.26 9.92 10.62L9.92 10.62L9.92 10.62Q10.18 9.98 10.18 9.24L10.18 9.24L10.18 9.24Q10.18 6.71 8.85 5.30L8.85 5.30L8.85 5.30Q7.52 3.89 5.56 3.89L5.56 3.89L5.56 3.89Q4.02 3.89 2.93 4.93L2.93 4.93L2.93 4.93Q1.85 5.96 1.85 7.98ZM19.38 7.98L19.38 7.98L19.38 7.98Q19.38 7.90 19.47 7.85L19.47 7.85L19.47 7.85Q19.56 7.81 19.77 7.78L19.77 7.78L19.77 7.78Q19.98 7.76 20.06 7.73L20.06 7.73L20.06 7.73Q20.33 7.66 20.62 7.54L20.62 7.54L20.62 7.54Q20.90 7.42 21.08 7.34L21.08 7.34L21.08 7.34Q21.25 7.25 21.31 7.25L21.31 7.25L21.34 7.25L21.34 7.25Q21.46 7.25 21.46 7.42L21.46 7.42L21.46 7.42Q21.46 7.45 21.45 7.67L21.45 7.67L21.45 7.67Q21.43 7.90 21.43 8.02L21.43 8.02L21.43 8.02Q21.43 8.39 21.50 8.39L21.50 8.39L21.50 8.39Q21.55 8.39 21.60 8.31L21.60 8.31L21.60 8.31Q21.66 8.23 21.80 8.08L21.80 8.08L21.80 8.08Q21.95 7.94 22.16 7.81L22.16 7.81L22.16 7.81Q22.79 7.42 23.38 7.42L23.38 7.42L23.38 7.42Q23.94 7.42 24.39 7.59L24.39 7.59L24.39 7.59Q24.84 7.77 25.09 8.03L25.09 8.03L25.09 8.03Q25.34 8.29 25.51 8.62L25.51 8.62L25.51 8.62Q25.68 8.96 25.73 9.24L25.73 9.24L25.73 9.24Q25.79 9.52 25.79 9.77L25.79 9.77L25.79 9.77Q25.79 9.83 25.79 9.90L25.79 9.90L25.79 9.90Q25.79 9.98 25.80 10.10L25.80 10.10L25.80 10.10Q25.80 10.22 25.80 10.65L25.80 10.65L25.80 10.65Q25.80 11.09 25.80 11.77L25.80 11.77L25.80 12.08L25.80 12.08Q25.80 12.61 25.95 12.82L25.95 12.82L25.95 12.82Q26.10 13.02 26.66 13.10L26.66 13.10L26.66 13.10Q26.94 13.15 26.94 13.31L26.94 13.31L26.94 13.31Q26.94 13.45 26.66 13.45L26.66 13.45L26.66 13.45Q26.33 13.45 25.98 13.42L25.98 13.42L25.98 13.42Q25.63 13.38 25.51 13.38L25.51 13.38L25.51 13.38Q25.31 13.38 24.90 13.41L24.90 13.41L24.90 13.41Q24.49 13.44 24.43 13.44L24.43 13.44L24.43 13.44Q24.15 13.44 24.15 13.26L24.15 13.26L24.15 13.26Q24.15 13.19 24.20 13.15L24.20 13.15L24.20 13.15Q24.25 13.10 24.31 13.09L24.31 13.09L24.31 13.09Q24.37 13.08 24.43 13.06L24.43 13.06L24.50 13.05L24.50 13.05Q24.81 12.95 24.81 12.11L24.81 12.11L24.81 10.22L24.81 10.22Q24.81 9.14 24.28 8.59L24.28 8.59L24.28 8.59Q23.74 8.04 23.00 8.04L23.00 8.04L23.00 8.04Q22.40 8.04 21.95 8.36L21.95 8.36L21.95 8.36Q21.50 8.68 21.43 8.89L21.43 8.89L21.43 8.89Q21.31 9.24 21.31 11.10L21.31 11.10L21.31 11.63L21.31 11.63Q21.31 12.33 21.45 12.67L21.45 12.67L21.45 12.67Q21.60 13.01 22.11 13.05L22.11 13.05L22.11 13.05Q22.25 13.05 22.46 13.10L22.46 13.10L22.46 13.10Q22.68 13.15 22.68 13.26L22.68 13.26L22.68 13.26Q22.68 13.44 22.41 13.44L22.41 13.44L22.41 13.44Q22.18 13.44 21.95 13.41L21.95 13.41L21.95 13.41Q21.73 13.38 21.39 13.38L21.39 13.38L21.39 13.38Q21.03 13.38 20.43 13.41L20.43 13.41L19.82 13.44L19.82 13.44Q19.61 13.44 19.61 13.30L19.61 13.30L19.61 13.30Q19.61 13.19 19.68 13.16L19.68 13.16L19.68 13.16Q19.75 13.13 19.86 13.12L19.86 13.12L19.86 13.12Q19.96 13.10 20.07 13.03L20.07 13.03L20.07 13.03Q20.17 12.96 20.26 12.69L20.26 12.69L20.26 12.69Q20.34 12.42 20.36 11.96L20.36 11.96L20.36 11.96Q20.38 11.17 20.38 10.91L20.38 10.91L20.38 8.89L20.38 8.89Q20.38 8.44 20.22 8.29L20.22 8.29L20.22 8.29Q20.06 8.13 19.78 8.13L19.78 8.13L19.64 8.13L19.64 8.13Q19.38 8.13 19.38 7.98ZM34.50 3.74L34.50 3.74L34.50 3.74Q34.50 3.65 34.52 3.61L34.52 3.61L34.52 3.61Q34.54 3.57 34.61 3.54L34.61 3.54L34.61 3.54Q34.68 3.50 34.77 3.48L34.77 3.48L34.77 3.48Q34.86 3.46 35.06 3.39L35.06 3.39L35.06 3.39Q35.25 3.33 35.45 3.25L35.45 3.25L35.45 3.25Q35.56 3.21 35.80 3.09L35.80 3.09L35.80 3.09Q36.04 2.98 36.21 2.92L36.21 2.92L36.21 2.92Q36.39 2.86 36.51 2.86L36.51 2.86L36.51 2.86Q36.68 2.86 36.68 3.12L36.68 3.12L36.68 3.12Q36.68 3.18 36.65 3.45L36.65 3.45L36.65 3.45Q36.62 3.72 36.60 4.21L36.60 4.21L36.60 4.21Q36.57 4.69 36.57 5.25L36.57 5.25L36.57 6.03L36.57 6.03Q36.57 6.69 36.55 7.15L36.55 7.15L36.55 7.15Q36.54 7.60 36.54 7.90L36.54 7.90L36.54 12.07L36.54 12.07Q36.54 12.36 36.59 12.55L36.59 12.55L36.59 12.55Q36.64 12.74 36.91 12.91L36.91 12.91L36.91 12.91Q37.18 13.09 37.67 13.09L37.67 13.09L37.67 13.09Q37.74 13.09 37.80 13.16L37.80 13.16L37.80 13.16Q37.86 13.23 37.86 13.30L37.86 13.30L37.86 13.30Q37.86 13.50 37.42 13.50L37.42 13.50L37.42 13.50Q37.30 13.50 36.77 13.45L36.77 13.45L36.77 13.45Q36.25 13.40 36.01 13.40L36.01 13.40L36.01 13.40Q35.64 13.40 35.31 13.45L35.31 13.45L35.31 13.45Q34.99 13.51 34.87 13.51L34.87 13.51L34.87 13.51Q34.78 13.51 34.71 13.46L34.71 13.46L34.71 13.46Q34.65 13.41 34.65 13.37L34.65 13.37L34.65 13.37Q34.65 13.26 34.71 13.21L34.71 13.21L34.71 13.21Q34.78 13.16 34.92 13.13L34.92 13.13L34.92 13.13Q35.07 13.09 35.13 13.06L35.13 13.06L35.13 13.06Q35.36 12.95 35.43 12.75L35.43 12.75L35.43 12.75Q35.50 12.56 35.50 12.15L35.50 12.15L35.50 12.15Q35.50 12.10 35.50 11.98L35.50 11.98L35.50 11.98Q35.49 11.86 35.49 11.79L35.49 11.79L35.49 10.75L35.49 10.75Q35.49 10.23 35.52 8.00L35.52 8.00L35.52 8.00Q35.55 5.77 35.55 4.80L35.55 4.80L35.55 4.80Q35.55 4.48 35.44 4.22L35.44 4.22L35.44 4.22Q35.34 3.96 35.21 3.91L35.21 3.91L35.21 3.91Q35.08 3.85 34.65 3.85L34.65 3.85L34.65 3.85Q34.50 3.85 34.50 3.74ZM45.63 8.11L45.63 8.11L45.63 8.11Q45.63 8.04 45.66 7.99L45.66 7.99L45.66 7.99Q45.70 7.95 45.80 7.90L45.80 7.90L45.80 7.90Q45.91 7.85 46.02 7.82L46.02 7.82L46.02 7.82Q46.13 7.78 46.35 7.71L46.35 7.71L46.35 7.71Q46.56 7.63 46.76 7.55L46.76 7.55L46.76 7.55Q46.91 7.48 47.05 7.42L47.05 7.42L47.05 7.42Q47.18 7.36 47.22 7.34L47.22 7.34L47.22 7.34Q47.26 7.32 47.32 7.31L47.32 7.31L47.32 7.31Q47.38 7.29 47.46 7.29L47.46 7.29L47.46 7.29Q47.67 7.29 47.67 7.56L47.67 7.56L47.67 7.56Q47.67 7.63 47.63 7.87L47.63 7.87L47.63 7.87Q47.59 8.11 47.59 8.23L47.59 8.23L47.59 12.07L47.59 12.07Q47.59 12.49 47.72 12.73L47.72 12.73L47.72 12.73Q47.85 12.96 48.00 13.02L48.00 13.02L48.00 13.02Q48.15 13.08 48.37 13.09L48.37 13.09L48.37 13.09Q48.54 13.10 48.59 13.11L48.59 13.11L48.59 13.11Q48.65 13.12 48.72 13.16L48.72 13.16L48.72 13.16Q48.79 13.20 48.79 13.30L48.79 13.30L48.79 13.30Q48.79 13.54 48.55 13.54L48.55 13.54L48.55 13.54Q48.52 13.54 48.45 13.53L48.45 13.53L48.45 13.53Q48.38 13.52 48.34 13.52L48.34 13.52L48.34 13.52Q48.03 13.52 47.82 13.51L47.82 13.51L47.82 13.51Q47.61 13.50 47.35 13.50L47.35 13.50L47.35 13.50Q47.01 13.50 46.72 13.51L46.72 13.51L46.72 13.51Q46.42 13.52 46.35 13.52L46.35 13.52L46.35 13.52Q45.79 13.52 45.79 13.34L45.79 13.34L45.79 13.34Q45.79 13.15 46.00 13.08L46.00 13.08L46.00 13.08Q46.02 13.08 46.06 13.06L46.06 13.06L46.06 13.06Q46.38 12.95 46.45 12.78L46.45 12.78L46.45 12.78Q46.58 12.50 46.58 10.56L46.58 10.56L46.58 9.32L46.58 9.32Q46.58 8.92 46.48 8.68L46.48 8.68L46.48 8.68Q46.38 8.44 46.30 8.39L46.30 8.39L46.30 8.39Q46.21 8.33 46.01 8.29L46.01 8.29L46.01 8.29Q45.81 8.26 45.77 8.25L45.77 8.25L45.77 8.25Q45.63 8.19 45.63 8.11ZM46.42 5.18L46.42 5.18L46.42 5.18Q46.42 5.01 46.67 4.71L46.67 4.71L46.67 4.71Q46.91 4.41 47.12 4.41L47.12 4.41L47.12 4.41Q47.35 4.41 47.56 4.70L47.56 4.70L47.56 4.70Q47.77 4.98 47.77 5.21L47.77 5.21L47.77 5.21Q47.77 5.43 47.50 5.70L47.50 5.70L47.50 5.70Q47.24 5.98 47.11 5.98L47.11 5.98L47.11 5.98Q46.83 5.98 46.63 5.68L46.63 5.68L46.63 5.68Q46.42 5.39 46.42 5.18ZM56.53 7.98L56.53 7.98L56.53 7.98Q56.53 7.90 56.62 7.85L56.62 7.85L56.62 7.85Q56.71 7.81 56.92 7.78L56.92 7.78L56.92 7.78Q57.13 7.76 57.22 7.73L57.22 7.73L57.22 7.73Q57.48 7.66 57.77 7.54L57.77 7.54L57.77 7.54Q58.06 7.42 58.23 7.34L58.23 7.34L58.23 7.34Q58.41 7.25 58.46 7.25L58.46 7.25L58.49 7.25L58.49 7.25Q58.62 7.25 58.62 7.42L58.62 7.42L58.62 7.42Q58.62 7.45 58.60 7.67L58.60 7.67L58.60 7.67Q58.59 7.90 58.59 8.02L58.59 8.02L58.59 8.02Q58.59 8.39 58.66 8.39L58.66 8.39L58.66 8.39Q58.70 8.39 58.76 8.31L58.76 8.31L58.76 8.31Q58.81 8.23 58.96 8.08L58.96 8.08L58.96 8.08Q59.11 7.94 59.32 7.81L59.32 7.81L59.32 7.81Q59.95 7.42 60.54 7.42L60.54 7.42L60.54 7.42Q61.10 7.42 61.54 7.59L61.54 7.59L61.54 7.59Q61.99 7.77 62.24 8.03L62.24 8.03L62.24 8.03Q62.50 8.29 62.66 8.62L62.66 8.62L62.66 8.62Q62.83 8.96 62.89 9.24L62.89 9.24L62.89 9.24Q62.94 9.52 62.94 9.77L62.94 9.77L62.94 9.77Q62.94 9.83 62.94 9.90L62.94 9.90L62.94 9.90Q62.94 9.98 62.95 10.10L62.95 10.10L62.95 10.10Q62.96 10.22 62.96 10.65L62.96 10.65L62.96 10.65Q62.96 11.09 62.96 11.77L62.96 11.77L62.96 12.08L62.96 12.08Q62.96 12.61 63.10 12.82L63.10 12.82L63.10 12.82Q63.25 13.02 63.81 13.10L63.81 13.10L63.81 13.10Q64.09 13.15 64.09 13.31L64.09 13.31L64.09 13.31Q64.09 13.45 63.81 13.45L63.81 13.45L63.81 13.45Q63.49 13.45 63.14 13.42L63.14 13.42L63.14 13.42Q62.79 13.38 62.66 13.38L62.66 13.38L62.66 13.38Q62.47 13.38 62.05 13.41L62.05 13.41L62.05 13.41Q61.64 13.44 61.59 13.44L61.59 13.44L61.59 13.44Q61.31 13.44 61.31 13.26L61.31 13.26L61.31 13.26Q61.31 13.19 61.35 13.15L61.35 13.15L61.35 13.15Q61.40 13.10 61.47 13.09L61.47 13.09L61.47 13.09Q61.53 13.08 61.59 13.06L61.59 13.06L61.66 13.05L61.66 13.05Q61.96 12.95 61.96 12.11L61.96 12.11L61.96 10.22L61.96 10.22Q61.96 9.14 61.43 8.59L61.43 8.59L61.43 8.59Q60.90 8.04 60.16 8.04L60.16 8.04L60.16 8.04Q59.56 8.04 59.11 8.36L59.11 8.36L59.11 8.36Q58.66 8.68 58.59 8.89L58.59 8.89L58.59 8.89Q58.46 9.24 58.46 11.10L58.46 11.10L58.46 11.63L58.46 11.63Q58.46 12.33 58.61 12.67L58.61 12.67L58.61 12.67Q58.76 13.01 59.26 13.05L59.26 13.05L59.26 13.05Q59.40 13.05 59.62 13.10L59.62 13.10L59.62 13.10Q59.84 13.15 59.84 13.26L59.84 13.26L59.84 13.26Q59.84 13.44 59.57 13.44L59.57 13.44L59.57 13.44Q59.33 13.44 59.11 13.41L59.11 13.41L59.11 13.41Q58.88 13.38 58.55 13.38L58.55 13.38L58.55 13.38Q58.18 13.38 57.58 13.41L57.58 13.41L56.98 13.44L56.98 13.44Q56.77 13.44 56.77 13.30L56.77 13.30L56.77 13.30Q56.77 13.19 56.84 13.16L56.84 13.16L56.84 13.16Q56.91 13.13 57.02 13.12L57.02 13.12L57.02 13.12Q57.12 13.10 57.23 13.03L57.23 13.03L57.23 13.03Q57.33 12.96 57.41 12.69L57.41 12.69L57.41 12.69Q57.50 12.42 57.51 11.96L57.51 11.96L57.51 11.96Q57.54 11.17 57.54 10.91L57.54 10.91L57.54 8.89L57.54 8.89Q57.54 8.44 57.38 8.29L57.38 8.29L57.38 8.29Q57.22 8.13 56.94 8.13L56.94 8.13L56.80 8.13L56.80 8.13Q56.53 8.13 56.53 7.98ZM71.78 10.72L71.78 10.72L71.78 10.72Q71.78 9.32 72.57 8.36L72.57 8.36L72.57 8.36Q73.36 7.39 74.62 7.39L74.62 7.39L74.62 7.39Q75.21 7.39 75.69 7.60L75.69 7.60L75.69 7.60Q76.17 7.81 76.44 8.11L76.44 8.11L76.44 8.11Q76.71 8.41 76.89 8.75L76.89 8.75L76.89 8.75Q77.07 9.09 77.13 9.30L77.13 9.30L77.13 9.30Q77.20 9.52 77.20 9.62L77.20 9.62L77.20 9.62Q77.20 9.87 76.62 9.87L76.62 9.87L73.44 9.87L73.02 9.87L73.02 9.87Q72.91 9.87 72.89 9.89L72.89 9.89L72.89 9.89Q72.87 9.91 72.87 10.02L72.87 10.02L72.87 10.02Q72.87 11.34 73.58 12.10L73.58 12.10L73.58 12.10Q74.28 12.85 75.24 12.85L75.24 12.85L75.24 12.85Q75.82 12.85 76.43 12.54L76.43 12.54L76.43 12.54Q77.04 12.22 77.07 12.22L77.07 12.22L77.07 12.22Q77.21 12.22 77.21 12.35L77.21 12.35L77.21 12.35Q77.21 12.40 77.11 12.55L77.11 12.55L77.11 12.55Q77.01 12.70 76.80 12.89L76.80 12.89L76.80 12.89Q76.59 13.09 76.31 13.27L76.31 13.27L76.31 13.27Q76.03 13.45 75.61 13.58L75.61 13.58L75.61 13.58Q75.19 13.71 74.73 13.71L74.73 13.71L74.73 13.71Q73.50 13.71 72.64 12.95L72.64 12.95L72.64 12.95Q71.78 12.19 71.78 10.72ZM72.95 9.34L72.95 9.34L72.95 9.34Q72.95 9.53 73.14 9.53L73.14 9.53L73.14 9.53Q73.51 9.53 74.52 9.49L74.52 9.49L74.52 9.49Q75.53 9.45 75.60 9.45L75.60 9.45L75.60 9.45Q75.80 9.45 75.84 9.41L75.84 9.41L75.84 9.41Q75.89 9.38 75.89 9.28L75.89 9.28L75.89 9.28Q75.89 8.86 75.50 8.30L75.50 8.30L75.50 8.30Q75.11 7.74 74.38 7.74L74.38 7.74L74.38 7.74Q73.71 7.74 73.33 8.29L73.33 8.29L73.33 8.29Q72.95 8.85 72.95 9.34ZM95.02 3.71L95.02 3.71L95.02 3.71Q95.02 3.50 95.27 3.50L95.27 3.50L95.27 3.50Q95.35 3.50 95.66 3.53L95.66 3.53L95.66 3.53Q95.96 3.56 96.01 3.56L96.01 3.56L96.01 3.56Q96.22 3.56 96.59 3.54L96.59 3.54L96.59 3.54Q96.95 3.53 97.06 3.53L97.06 3.53L97.06 3.53Q97.33 3.53 97.40 3.72L97.40 3.72L97.40 3.72Q97.57 4.09 98 5.03L98 5.03L98 5.03Q98.43 5.98 98.69 6.54L98.69 6.54L98.69 6.54Q98.95 7.10 99.36 7.97L99.36 7.97L99.36 7.97Q99.76 8.83 100.02 9.37L100.02 9.37L100.02 9.37Q100.27 9.91 100.54 10.46L100.54 10.46L100.54 10.46Q100.81 11.00 100.96 11.26L100.96 11.26L100.96 11.26Q101.11 11.52 101.15 11.52L101.15 11.52L101.15 11.52Q101.19 11.52 101.24 11.47L101.24 11.47L101.24 11.47Q101.29 11.42 101.34 11.34L101.34 11.34L101.34 11.34Q101.39 11.26 101.42 11.17L101.42 11.17L101.42 11.17Q101.46 11.09 101.52 10.96L101.52 10.96L101.52 10.96Q101.58 10.82 101.61 10.75L101.61 10.75L103.42 7.03L103.42 7.03Q103.73 6.40 103.96 5.89L103.96 5.89L103.96 5.89Q104.20 5.39 104.34 5.08L104.34 5.08L104.34 5.08Q104.48 4.77 104.58 4.55L104.58 4.55L104.58 4.55Q104.68 4.33 104.73 4.21L104.73 4.21L104.73 4.21Q104.78 4.10 104.80 4.04L104.80 4.04L104.80 4.04Q104.82 3.98 104.83 3.94L104.83 3.94L104.83 3.94Q104.85 3.91 104.86 3.88L104.86 3.88L104.86 3.88Q104.87 3.85 104.91 3.75L104.91 3.75L104.91 3.75Q104.94 3.65 104.98 3.62L104.98 3.62L104.98 3.62Q105.01 3.58 105.12 3.54L105.12 3.54L105.12 3.54Q105.22 3.50 105.39 3.50L105.39 3.50L105.39 3.50Q105.66 3.50 105.89 3.51L105.89 3.51L105.89 3.51Q106.12 3.53 106.60 3.53L106.60 3.53L106.60 3.53Q106.83 3.53 106.83 3.71L106.83 3.71L106.83 3.71Q106.83 3.85 106.74 3.91L106.74 3.91L106.74 3.91Q106.65 3.98 106.37 4.02L106.37 4.02L106.37 4.02Q106.02 4.06 105.88 4.37L105.88 4.37L105.88 4.37Q105.74 4.68 105.74 5.54L105.74 5.54L105.74 5.54Q105.74 7.43 105.83 8.97L105.83 8.97L105.83 8.97Q105.91 10.50 105.91 10.89L105.91 10.89L105.91 10.89Q105.91 12.29 106.13 12.68L106.13 12.68L106.13 12.68Q106.36 13.06 107.07 13.06L107.07 13.06L107.07 13.06Q107.17 13.06 107.25 13.13L107.25 13.13L107.25 13.13Q107.32 13.20 107.32 13.26L107.32 13.26L107.32 13.26Q107.32 13.34 107.31 13.38L107.31 13.38L107.31 13.38Q107.30 13.43 107.25 13.45L107.25 13.45L107.25 13.45Q107.21 13.48 107.17 13.48L107.17 13.48L107.17 13.48Q107.13 13.48 107.02 13.48L107.02 13.48L107.02 13.48Q106.60 13.48 106.19 13.45L106.19 13.45L106.19 13.45Q105.78 13.43 105.59 13.43L105.59 13.43L105.59 13.43Q105.20 13.43 104.78 13.46L104.78 13.46L104.78 13.46Q104.36 13.50 104.13 13.50L104.13 13.50L104.13 13.50Q103.88 13.50 103.88 13.30L103.88 13.30L103.88 13.30Q103.88 13.17 103.99 13.12L103.99 13.12L103.99 13.12Q104.10 13.06 104.25 13.05L104.25 13.05L104.25 13.05Q104.40 13.03 104.56 12.87L104.56 12.87L104.56 12.87Q104.72 12.71 104.79 12.39L104.79 12.39L104.79 12.39Q104.85 12.11 104.85 11.49L104.85 11.49L104.85 11.49Q104.85 11.05 104.83 10.42L104.83 10.42L104.83 10.42Q104.80 9.79 104.78 9.19L104.78 9.19L104.78 9.19Q104.75 8.60 104.72 8.07L104.72 8.07L104.72 8.07Q104.69 7.55 104.68 7.21L104.68 7.21L104.65 6.87L104.65 6.87Q104.65 6.27 104.52 6.27L104.52 6.27L104.52 6.27Q104.51 6.27 104.48 6.29L104.48 6.29L104.48 6.29Q104.45 6.30 104.43 6.33L104.43 6.33L104.43 6.33Q104.41 6.36 104.38 6.38L104.38 6.38L104.38 6.38Q104.36 6.41 104.33 6.47L104.33 6.47L104.33 6.47Q104.30 6.54 104.27 6.58L104.27 6.58L104.27 6.58Q104.24 6.62 104.20 6.70L104.20 6.70L104.20 6.70Q104.16 6.78 104.13 6.83L104.13 6.83L104.13 6.83Q104.10 6.89 104.06 6.99L104.06 6.99L104.06 6.99Q104.01 7.08 103.98 7.15L103.98 7.15L102.03 11.09L102.03 11.09Q101.70 11.77 101.32 12.56L101.32 12.56L101.32 12.56Q101.07 13.09 101.01 13.18L101.01 13.18L101.01 13.18Q100.95 13.27 100.87 13.27L100.87 13.27L100.87 13.27Q100.74 13.27 100.66 13.15L100.66 13.15L100.66 13.15Q100.58 13.03 100.41 12.63L100.41 12.63L100.41 12.63Q100.24 12.22 100.11 11.96L100.11 11.96L100.11 11.96Q97.55 6.75 97.48 6.65L97.48 6.65L97.48 6.65Q97.44 6.59 97.40 6.59L97.40 6.59L97.40 6.59Q97.29 6.59 97.29 7.15L97.29 7.15L97.29 7.15Q97.27 8.25 97.22 9.31L97.22 9.31L97.22 9.31Q97.16 10.37 97.16 10.85L97.16 10.85L97.16 11.48L97.16 11.48Q97.16 11.84 97.18 12.04L97.18 12.04L97.18 12.04Q97.20 12.24 97.29 12.49L97.29 12.49L97.29 12.49Q97.38 12.75 97.62 12.89L97.62 12.89L97.62 12.89Q97.86 13.03 98.24 13.08L98.24 13.08L98.24 13.08Q98.31 13.08 98.37 13.13L98.37 13.13L98.37 13.13Q98.43 13.17 98.43 13.23L98.43 13.23L98.43 13.23Q98.43 13.38 98.39 13.43L98.39 13.43L98.39 13.43Q98.35 13.48 98.22 13.48L98.22 13.48L98.22 13.48Q97.94 13.48 97.38 13.45L97.38 13.45L97.38 13.45Q96.82 13.43 96.77 13.43L96.77 13.43L96.77 13.43Q96.74 13.43 96.36 13.45L96.36 13.45L96.36 13.45Q95.98 13.47 95.62 13.47L95.62 13.47L95.62 13.47Q95.51 13.47 95.46 13.45L95.46 13.45L95.46 13.45Q95.41 13.44 95.37 13.39L95.37 13.39L95.37 13.39Q95.33 13.34 95.33 13.24L95.33 13.24L95.33 13.24Q95.33 13.13 95.45 13.09L95.45 13.09L95.45 13.09Q95.58 13.05 95.74 13.04L95.74 13.04L95.74 13.04Q95.90 13.03 96.10 12.82L96.10 12.82L96.10 12.82Q96.29 12.60 96.39 12.18L96.39 12.18L96.39 12.18Q96.46 11.87 96.56 9.74L96.56 9.74L96.56 9.74Q96.66 7.62 96.66 6.59L96.66 6.59L96.66 6.59Q96.66 5.19 96.38 4.66L96.38 4.66L96.38 4.66Q96.11 4.13 95.20 3.92L95.20 3.92L95.20 3.92Q95.02 3.88 95.02 3.71ZM114.94 10.72L114.94 10.72L114.94 10.72Q114.94 9.32 115.73 8.36L115.73 8.36L115.73 8.36Q116.52 7.39 117.78 7.39L117.78 7.39L117.78 7.39Q118.37 7.39 118.85 7.60L118.85 7.60L118.85 7.60Q119.34 7.81 119.60 8.11L119.60 8.11L119.60 8.11Q119.87 8.41 120.05 8.75L120.05 8.75L120.05 8.75Q120.23 9.09 120.30 9.30L120.30 9.30L120.30 9.30Q120.36 9.52 120.36 9.62L120.36 9.62L120.36 9.62Q120.36 9.87 119.78 9.87L119.78 9.87L116.61 9.87L116.19 9.87L116.19 9.87Q116.07 9.87 116.05 9.89L116.05 9.89L116.05 9.89Q116.03 9.91 116.03 10.02L116.03 10.02L116.03 10.02Q116.03 11.34 116.74 12.10L116.74 12.10L116.74 12.10Q117.45 12.85 118.40 12.85L118.40 12.85L118.40 12.85Q118.99 12.85 119.59 12.54L119.59 12.54L119.59 12.54Q120.20 12.22 120.23 12.22L120.23 12.22L120.23 12.22Q120.37 12.22 120.37 12.35L120.37 12.35L120.37 12.35Q120.37 12.40 120.27 12.55L120.27 12.55L120.27 12.55Q120.18 12.70 119.97 12.89L119.97 12.89L119.97 12.89Q119.76 13.09 119.48 13.27L119.48 13.27L119.48 13.27Q119.20 13.45 118.78 13.58L118.78 13.58L118.78 13.58Q118.36 13.71 117.89 13.71L117.89 13.71L117.89 13.71Q116.66 13.71 115.80 12.95L115.80 12.95L115.80 12.95Q114.94 12.19 114.94 10.72ZM116.12 9.34L116.12 9.34L116.12 9.34Q116.12 9.53 116.30 9.53L116.30 9.53L116.30 9.53Q116.68 9.53 117.68 9.49L117.68 9.49L117.68 9.49Q118.69 9.45 118.76 9.45L118.76 9.45L118.76 9.45Q118.96 9.45 119.01 9.41L119.01 9.41L119.01 9.41Q119.06 9.38 119.06 9.28L119.06 9.28L119.06 9.28Q119.06 8.86 118.66 8.30L118.66 8.30L118.66 8.30Q118.27 7.74 117.54 7.74L117.54 7.74L117.54 7.74Q116.87 7.74 116.49 8.29L116.49 8.29L116.49 8.29Q116.12 8.85 116.12 9.34ZM128.35 8.01L128.35 8.01L128.35 8.01Q128.35 7.88 128.52 7.82L128.52 7.82L128.52 7.82Q128.69 7.76 129.02 7.69L129.02 7.69L129.02 7.69Q129.36 7.62 129.58 7.52L129.58 7.52L129.58 7.52Q129.67 7.49 129.77 7.43L129.77 7.43L129.77 7.43Q129.86 7.38 129.91 7.36L129.91 7.36L129.91 7.36Q129.96 7.34 130.04 7.32L130.04 7.32L130.04 7.32Q130.12 7.31 130.20 7.31L130.20 7.31L130.20 7.31Q130.37 7.31 130.37 7.71L130.37 7.71L130.37 7.71Q130.37 7.81 130.33 8.04L130.33 8.04L130.33 8.04Q130.30 8.26 130.30 8.30L130.30 8.30L130.30 8.30Q130.30 8.47 130.38 8.47L130.38 8.47L130.38 8.47Q130.40 8.47 130.47 8.36L130.47 8.36L130.47 8.36Q130.55 8.26 130.68 8.11L130.68 8.11L130.68 8.11Q130.82 7.97 131.01 7.82L131.01 7.82L131.01 7.82Q131.21 7.67 131.54 7.57L131.54 7.57L131.54 7.57Q131.87 7.46 132.27 7.46L132.27 7.46L132.27 7.46Q132.79 7.46 133.17 7.64L133.17 7.64L133.17 7.64Q133.55 7.81 133.69 8.02L133.69 8.02L133.69 8.02Q133.84 8.22 133.94 8.39L133.94 8.39L133.94 8.39Q134.04 8.57 134.06 8.57L134.06 8.57L134.06 8.57Q134.08 8.57 134.32 8.28L134.32 8.28L134.32 8.28Q134.57 7.99 135.02 7.71L135.02 7.71L135.02 7.71Q135.48 7.42 135.98 7.42L135.98 7.42L135.98 7.42Q137.00 7.42 137.56 8.02L137.56 8.02L137.56 8.02Q138.11 8.62 138.21 9.52L138.21 9.52L138.21 9.52Q138.29 10.35 138.29 11.30L138.29 11.30L138.29 11.75L138.29 11.75Q138.29 12.38 138.36 12.66L138.36 12.66L138.36 12.66Q138.43 12.94 138.68 13.02L138.68 13.02L138.68 13.02Q138.70 13.02 138.81 13.04L138.81 13.04L138.81 13.04Q138.92 13.06 139.00 13.08L139.00 13.08L139.00 13.08Q139.08 13.09 139.15 13.15L139.15 13.15L139.15 13.15Q139.22 13.20 139.22 13.29L139.22 13.29L139.22 13.29Q139.22 13.50 138.75 13.50L138.75 13.50L138.75 13.50Q138.67 13.50 138.33 13.47L138.33 13.47L138.33 13.47Q137.98 13.44 137.83 13.44L137.83 13.44L137.83 13.44Q137.62 13.44 137.29 13.47L137.29 13.47L137.29 13.47Q136.96 13.50 136.82 13.50L136.82 13.50L136.82 13.50Q136.49 13.50 136.49 13.36L136.49 13.36L136.49 13.36Q136.49 13.20 136.78 13.09L136.78 13.09L136.78 13.09Q137.07 12.98 137.13 12.85L137.13 12.85L137.13 12.85Q137.19 12.70 137.19 12.21L137.19 12.21L137.19 11.98L137.19 11.98Q137.19 11.51 137.18 11.15L137.18 11.15L137.18 11.15Q137.17 10.79 137.17 10.49L137.17 10.49L137.17 10.49Q137.17 10.19 137.15 9.97L137.15 9.97L137.15 9.97Q137.13 9.74 137.13 9.58L137.13 9.58L137.13 9.58Q137.13 9.42 137.09 9.29L137.09 9.29L137.09 9.29Q137.05 9.16 137.04 9.09L137.04 9.09L137.04 9.09Q137.03 9.02 136.96 8.92L136.96 8.92L136.96 8.92Q136.89 8.82 136.88 8.79L136.88 8.79L136.88 8.79Q136.86 8.76 136.77 8.65L136.77 8.65L136.77 8.65Q136.68 8.54 136.65 8.51L136.65 8.51L136.65 8.51Q136.29 8.08 135.60 8.08L135.60 8.08L135.60 8.08Q135.28 8.08 134.93 8.25L134.93 8.25L134.93 8.25Q134.58 8.41 134.37 8.59L134.37 8.59L134.37 8.59Q134.16 8.76 134.16 8.83L134.16 8.83L134.16 8.83Q134.16 8.88 134.18 9.03L134.18 9.03L134.18 9.03Q134.20 9.18 134.22 9.58L134.22 9.58L134.22 9.58Q134.25 9.98 134.25 10.61L134.25 10.61L134.25 11.80L134.25 11.80Q134.25 12.45 134.43 12.75L134.43 12.75L134.43 12.75Q134.61 13.05 135.21 13.13L135.21 13.13L135.21 13.13Q135.35 13.15 135.41 13.22L135.41 13.22L135.41 13.22Q135.46 13.30 135.46 13.36L135.46 13.36L135.46 13.36Q135.46 13.51 135.20 13.51L135.20 13.51L135.20 13.51Q135.10 13.51 134.75 13.47L134.75 13.47L134.75 13.47Q134.40 13.44 134.18 13.44L134.18 13.44L134.18 13.44Q134.04 13.44 133.49 13.47L133.49 13.47L133.49 13.47Q132.94 13.51 132.90 13.51L132.90 13.51L132.90 13.51Q132.59 13.51 132.59 13.33L132.59 13.33L132.59 13.33Q132.59 13.23 132.65 13.18L132.65 13.18L132.65 13.18Q132.71 13.13 132.92 13.05L132.92 13.05L132.92 13.05Q133 13.02 133.05 12.99L133.05 12.99L133.05 12.99Q133.10 12.96 133.17 12.75L133.17 12.75L133.17 12.75Q133.24 12.54 133.24 12.18L133.24 12.18L133.24 12.18Q133.24 12.12 133.24 12.07L133.24 12.07L133.24 12.07Q133.24 12.01 133.25 11.92L133.25 11.92L133.25 11.92Q133.25 11.83 133.25 11.50L133.25 11.50L133.25 11.50Q133.25 11.17 133.25 10.65L133.25 10.65L133.25 10.65Q133.25 10.35 133.25 10.16L133.25 10.16L133.25 10.16Q133.24 9.97 133.24 9.91L133.24 9.91L133.24 9.91Q133.24 9.86 133.23 9.82L133.23 9.82L133.23 9.82Q133.22 9.79 133.22 9.77L133.22 9.77L133.22 9.77Q133.22 9.03 132.85 8.58L132.85 8.58L132.85 8.58Q132.47 8.13 131.80 8.13L131.80 8.13L131.80 8.13Q131.21 8.13 130.75 8.44L130.75 8.44L130.75 8.44Q130.28 8.75 130.28 9.16L130.28 9.16L130.28 9.35L130.28 11.98L130.28 11.98Q130.28 12.49 130.47 12.75L130.47 12.75L130.47 12.75Q130.65 13.02 130.87 13.05L130.87 13.05L130.87 13.05Q131.10 13.09 131.28 13.13L131.28 13.13L131.28 13.13Q131.46 13.17 131.46 13.27L131.46 13.27L131.46 13.27Q131.46 13.40 131.42 13.44L131.42 13.44L131.42 13.44Q131.38 13.48 131.17 13.48L131.17 13.48L131.17 13.48Q131.11 13.48 130.72 13.46L130.72 13.46L130.72 13.46Q130.34 13.44 129.99 13.44L129.99 13.44L129.99 13.44Q129.67 13.44 129.30 13.46L129.30 13.46L129.30 13.46Q128.94 13.48 128.88 13.48L128.88 13.48L128.88 13.48Q128.55 13.48 128.55 13.27L128.55 13.27L128.55 13.27Q128.55 13.17 128.63 13.13L128.63 13.13L128.63 13.13Q128.70 13.09 128.80 13.08L128.80 13.08L128.80 13.08Q128.90 13.06 129.01 12.96L129.01 12.96L129.01 12.96Q129.12 12.85 129.19 12.66L129.19 12.66L129.19 12.66Q129.30 12.26 129.30 10.53L129.30 10.53L129.30 10.53Q129.30 10.26 129.30 9.69L129.30 9.69L129.30 9.69Q129.29 9.11 129.29 8.82L129.29 8.82L129.29 8.82Q129.29 8.48 129.14 8.34L129.14 8.34L129.14 8.34Q129.00 8.20 128.82 8.21L128.82 8.21L128.82 8.21Q128.65 8.22 128.50 8.18L128.50 8.18L128.50 8.18Q128.35 8.15 128.35 8.01ZM146.90 10.60L146.90 10.60L146.90 10.60Q146.90 9.31 147.78 8.36L147.78 8.36L147.78 8.36Q148.65 7.41 150.21 7.41L150.21 7.41L150.21 7.41Q151.52 7.41 152.50 8.23L152.50 8.23L152.50 8.23Q153.47 9.06 153.47 10.51L153.47 10.51L153.47 10.51Q153.47 12.00 152.47 12.84L152.47 12.84L152.47 12.84Q151.47 13.69 150.11 13.69L150.11 13.69L150.11 13.69Q148.60 13.69 147.75 12.77L147.75 12.77L147.75 12.77Q146.90 11.86 146.90 10.60ZM148.01 10.12L148.01 10.12L148.01 10.12Q148.01 11.56 148.78 12.42L148.78 12.42L148.78 12.42Q149.55 13.27 150.53 13.27L150.53 13.27L150.53 13.27Q151.33 13.27 151.87 12.66L151.87 12.66L151.87 12.66Q152.42 12.05 152.42 10.93L152.42 10.93L152.42 10.93Q152.42 9.70 151.75 8.74L151.75 8.74L151.75 8.74Q151.07 7.78 149.87 7.78L149.87 7.78L149.87 7.78Q149.14 7.78 148.58 8.36L148.58 8.36L148.58 8.36Q148.01 8.93 148.01 10.12ZM171.28 3.65L171.28 3.65L171.28 3.65Q171.28 3.46 171.67 3.46L171.67 3.46L171.67 3.46Q171.72 3.46 171.85 3.47L171.85 3.47L171.85 3.47Q171.98 3.49 172.05 3.49L172.05 3.49L172.05 3.49Q172.09 3.49 173.36 3.52L173.36 3.52L173.36 3.52Q174.64 3.56 175.46 3.56L175.46 3.56L175.46 3.56Q175.76 3.56 176.91 3.53L176.91 3.53L176.91 3.53Q178.07 3.50 178.26 3.50L178.26 3.50L178.26 3.50Q178.53 3.50 178.53 3.82L178.53 3.82L178.53 3.82Q178.53 3.91 178.44 4.38L178.44 4.38L178.44 4.38Q178.36 4.84 178.36 5.25L178.36 5.25L178.36 5.25Q178.36 5.38 178.29 5.47L178.29 5.47L178.29 5.47Q178.22 5.56 178.14 5.56L178.14 5.56L178.14 5.56Q177.93 5.56 177.93 5.26L177.93 5.26L177.93 5.26Q177.93 4.89 177.69 4.58L177.69 4.58L177.69 4.58Q177.45 4.27 177.10 4.26L177.10 4.26L177.10 4.26Q175.84 4.16 175.17 4.16L175.17 4.16L174.80 4.16L174.80 4.16Q174.08 4.16 173.96 4.26L173.96 4.26L173.96 4.26Q173.84 4.37 173.81 5.01L173.81 5.01L173.81 5.01Q173.75 6.02 173.75 7.35L173.75 7.35L173.75 7.35Q173.75 8.05 174.02 8.06L174.02 8.06L174.37 8.06L174.96 8.06L175.39 8.06L175.39 8.06Q176.23 8.06 176.51 8.01L176.51 8.01L176.51 8.01Q176.79 7.95 177.02 7.80L177.02 7.80L177.02 7.80Q177.28 7.62 177.34 7.28L177.34 7.28L177.34 7.28Q177.38 7.04 177.53 7.04L177.53 7.04L177.53 7.04Q177.66 7.04 177.69 7.08L177.69 7.08L177.69 7.08Q177.72 7.13 177.72 7.27L177.72 7.27L177.72 7.27Q177.72 7.36 177.66 7.91L177.66 7.91L177.66 7.91Q177.60 8.46 177.60 8.74L177.60 8.74L177.60 8.74Q177.60 9.00 177.63 9.24L177.63 9.24L177.63 9.24Q177.65 9.48 177.65 9.59L177.65 9.59L177.65 9.59Q177.65 9.94 177.55 9.94L177.55 9.94L177.55 9.94Q177.34 9.94 177.24 9.60L177.24 9.60L177.24 9.60Q177.04 9.02 176.89 8.92L176.89 8.92L176.89 8.92Q176.60 8.72 175.55 8.72L175.55 8.72L175.55 8.72Q175.13 8.72 174.87 8.72L174.87 8.72L174.87 8.72Q174.61 8.72 174.53 8.71L174.53 8.71L174.53 8.71Q174.45 8.71 174.41 8.71L174.41 8.71L174.41 8.71Q174.36 8.71 174.31 8.71L174.31 8.71L174.31 8.71Q173.74 8.71 173.74 8.97L173.74 8.97L173.74 8.97Q173.74 9.38 173.73 9.99L173.73 9.99L173.73 9.99Q173.71 10.60 173.71 10.99L173.71 10.99L173.71 11.55L173.71 11.55Q173.71 12.56 174.05 12.66L174.05 12.66L174.05 12.66Q174.40 12.77 174.65 12.77L174.65 12.77L174.65 12.77Q175.70 12.77 176.49 12.67L176.49 12.67L176.49 12.67Q177.28 12.57 177.68 12.42L177.68 12.42L177.68 12.42Q178.08 12.28 178.35 12.10L178.35 12.10L178.35 12.10Q178.61 11.93 178.69 11.78L178.69 11.78L178.69 11.78Q178.77 11.63 178.84 11.54L178.84 11.54L178.84 11.54Q178.92 11.44 179.00 11.44L179.00 11.44L179.00 11.44Q179.17 11.44 179.17 11.68L179.17 11.68L179.17 11.68Q179.17 12.28 178.57 12.89L178.57 12.89L178.57 12.89Q177.97 13.51 177.52 13.51L177.52 13.51L177.52 13.51Q176.51 13.51 175.25 13.44L175.25 13.44L175.25 13.44Q173.98 13.37 173.67 13.37L173.67 13.37L173.67 13.37Q173.28 13.37 172.69 13.43L172.69 13.43L172.69 13.43Q172.10 13.50 171.77 13.50L171.77 13.50L171.77 13.50Q171.47 13.50 171.47 13.36L171.47 13.36L171.47 13.36Q171.47 13.23 171.47 13.19L171.47 13.19L171.47 13.19Q171.47 13.15 171.51 13.12L171.51 13.12L171.51 13.12Q171.56 13.09 171.61 13.08L171.61 13.08L171.61 13.08Q171.65 13.08 171.79 13.03L171.79 13.03L171.79 13.03Q171.92 12.99 172.07 12.92L172.07 12.92L172.07 12.92Q172.41 12.75 172.52 12.26L172.52 12.26L172.52 12.26Q172.62 11.77 172.62 10.21L172.62 10.21L172.62 8.47L172.62 8.47Q172.62 8.09 172.64 7.29L172.64 7.29L172.64 7.29Q172.66 6.50 172.66 6.05L172.66 6.05L172.66 6.05Q172.66 5.67 172.63 4.77L172.63 4.77L172.63 4.77Q172.62 4.37 172.28 4.14L172.28 4.14L172.28 4.14Q171.95 3.92 171.50 3.91L171.50 3.91L171.50 3.91Q171.28 3.91 171.28 3.65ZM187.00 10.71L187.00 10.71L187.00 10.71Q187.00 9.35 187.90 8.33L187.90 8.33L187.90 8.33Q188.80 7.31 190.40 7.31L190.40 7.31L190.40 7.31Q190.76 7.31 191.36 7.51L191.36 7.51L191.36 7.51Q191.95 7.71 192.00 7.71L192.00 7.71L192.00 7.71Q192.07 7.71 192.07 7.21L192.07 7.21L192.07 7.21Q192.07 6.15 192.08 5.82L192.08 5.82L192.08 5.82Q192.09 5.49 192.09 5.40L192.09 5.40L192.09 5.40Q192.09 4.96 192.08 4.75L192.08 4.75L192.08 4.75Q192.07 4.54 192.00 4.28L192.00 4.28L192.00 4.28Q191.94 4.03 191.78 3.93L191.78 3.93L191.78 3.93Q191.62 3.84 191.35 3.84L191.35 3.84L191.20 3.84L191.20 3.84Q190.99 3.84 190.95 3.82L190.95 3.82L190.95 3.82Q190.90 3.81 190.90 3.72L190.90 3.72L190.90 3.71L190.90 3.71Q190.90 3.61 191.04 3.56L191.04 3.56L191.04 3.56Q191.18 3.51 191.61 3.38L191.61 3.38L191.61 3.38Q192.04 3.25 192.49 3.04L192.49 3.04L192.49 3.04Q192.53 3.02 192.65 2.96L192.65 2.96L192.65 2.96Q192.78 2.90 192.87 2.86L192.87 2.86L192.87 2.86Q192.96 2.83 193.03 2.83L193.03 2.83L193.03 2.83Q193.20 2.83 193.20 3.11L193.20 3.11L193.20 3.11Q193.20 3.15 193.11 4.30L193.11 4.30L193.11 4.30Q193.02 5.45 193.02 6.15L193.02 6.15L193.02 6.15Q193.02 7.59 193.00 9.27L193.00 9.27L193.00 9.27Q192.99 10.95 192.99 11.26L192.99 11.26L192.99 11.26Q192.99 12.21 193.08 12.53L193.08 12.53L193.08 12.53Q193.17 12.85 193.48 12.95L193.48 12.95L193.48 12.95Q193.52 12.96 193.72 13.00L193.72 13.00L193.72 13.00Q193.91 13.03 194.00 13.08L194.00 13.08L194.00 13.08Q194.08 13.13 194.08 13.24L194.08 13.24L194.08 13.24Q194.08 13.41 193.00 13.50L193.00 13.50L193.00 13.50Q192.78 13.51 192.49 13.57L192.49 13.57L192.49 13.57Q192.19 13.64 192.12 13.64L192.12 13.64L192.12 13.64Q191.97 13.64 191.97 13.48L191.97 13.48L191.97 13.48Q191.97 13.44 191.95 13.27L191.95 13.27L191.95 13.27Q191.93 13.10 191.93 12.96L191.93 12.96L191.93 12.96Q191.93 12.73 191.80 12.73L191.80 12.73L191.80 12.73Q191.76 12.73 191.60 12.87L191.60 12.87L191.60 12.87Q191.44 13.01 191.23 13.18L191.23 13.18L191.23 13.18Q191.02 13.36 190.62 13.50L190.62 13.50L190.62 13.50Q190.22 13.64 189.76 13.64L189.76 13.64L189.76 13.64Q188.45 13.64 187.73 12.77L187.73 12.77L187.73 12.77Q187.00 11.91 187.00 10.71ZM188.01 10.05L188.01 10.05L188.01 10.05Q188.01 11.12 188.66 12.01L188.66 12.01L188.66 12.01Q189.31 12.91 190.33 12.91L190.33 12.91L190.33 12.91Q190.96 12.91 191.48 12.59L191.48 12.59L191.48 12.59Q192.00 12.26 192.00 11.80L192.00 11.80L192.01 9.41L192.01 9.41Q192.01 8.55 191.62 8.33L191.62 8.33L191.62 8.33Q190.58 7.71 189.95 7.71L189.95 7.71L189.95 7.71Q189.04 7.71 188.52 8.38L188.52 8.38L188.52 8.38Q188.01 9.04 188.01 10.05ZM201.87 8.11L201.87 8.11L201.87 8.11Q201.87 8.04 201.90 7.99L201.90 7.99L201.90 7.99Q201.94 7.95 202.04 7.90L202.04 7.90L202.04 7.90Q202.15 7.85 202.26 7.82L202.26 7.82L202.26 7.82Q202.37 7.78 202.59 7.71L202.59 7.71L202.59 7.71Q202.80 7.63 203 7.55L203 7.55L203 7.55Q203.15 7.48 203.29 7.42L203.29 7.42L203.29 7.42Q203.42 7.36 203.46 7.34L203.46 7.34L203.46 7.34Q203.50 7.32 203.56 7.31L203.56 7.31L203.56 7.31Q203.62 7.29 203.70 7.29L203.70 7.29L203.70 7.29Q203.91 7.29 203.91 7.56L203.91 7.56L203.91 7.56Q203.91 7.63 203.87 7.87L203.87 7.87L203.87 7.87Q203.83 8.11 203.83 8.23L203.83 8.23L203.83 12.07L203.83 12.07Q203.83 12.49 203.96 12.73L203.96 12.73L203.96 12.73Q204.09 12.96 204.24 13.02L204.24 13.02L204.24 13.02Q204.39 13.08 204.61 13.09L204.61 13.09L204.61 13.09Q204.78 13.10 204.83 13.11L204.83 13.11L204.83 13.11Q204.89 13.12 204.96 13.16L204.96 13.16L204.96 13.16Q205.03 13.20 205.03 13.30L205.03 13.30L205.03 13.30Q205.03 13.54 204.79 13.54L204.79 13.54L204.79 13.54Q204.76 13.54 204.69 13.53L204.69 13.53L204.69 13.53Q204.62 13.52 204.58 13.52L204.58 13.52L204.58 13.52Q204.27 13.52 204.06 13.51L204.06 13.51L204.06 13.51Q203.85 13.50 203.59 13.50L203.59 13.50L203.59 13.50Q203.25 13.50 202.96 13.51L202.96 13.51L202.96 13.51Q202.66 13.52 202.59 13.52L202.59 13.52L202.59 13.52Q202.03 13.52 202.03 13.34L202.03 13.34L202.03 13.34Q202.03 13.15 202.24 13.08L202.24 13.08L202.24 13.08Q202.26 13.08 202.30 13.06L202.30 13.06L202.30 13.06Q202.62 12.95 202.69 12.78L202.69 12.78L202.69 12.78Q202.82 12.50 202.82 10.56L202.82 10.56L202.82 9.32L202.82 9.32Q202.82 8.92 202.72 8.68L202.72 8.68L202.72 8.68Q202.62 8.44 202.54 8.39L202.54 8.39L202.54 8.39Q202.45 8.33 202.25 8.29L202.25 8.29L202.25 8.29Q202.05 8.26 202.01 8.25L202.01 8.25L202.01 8.25Q201.87 8.19 201.87 8.11ZM202.66 5.18L202.66 5.18L202.66 5.18Q202.66 5.01 202.91 4.71L202.91 4.71L202.91 4.71Q203.15 4.41 203.36 4.41L203.36 4.41L203.36 4.41Q203.59 4.41 203.80 4.70L203.80 4.70L203.80 4.70Q204.01 4.98 204.01 5.21L204.01 5.21L204.01 5.21Q204.01 5.43 203.74 5.70L203.74 5.70L203.74 5.70Q203.48 5.98 203.35 5.98L203.35 5.98L203.35 5.98Q203.07 5.98 202.87 5.68L202.87 5.68L202.87 5.68Q202.66 5.39 202.66 5.18ZM212.65 8.06L212.65 8.06L212.65 8.06Q212.65 7.98 212.69 7.92L212.69 7.92L212.69 7.92Q212.74 7.85 212.83 7.80L212.83 7.80L212.83 7.80Q212.91 7.74 213.07 7.61L213.07 7.61L213.07 7.61Q213.23 7.48 213.39 7.31L213.39 7.31L213.39 7.31Q213.60 7.08 213.83 6.77L213.83 6.77L213.83 6.77Q214.06 6.45 214.19 6.31L214.19 6.31L214.19 6.31Q214.33 6.16 214.45 6.16L214.45 6.16L214.45 6.16Q214.61 6.16 214.61 6.48L214.61 6.48L214.61 6.48Q214.61 6.61 214.58 6.87L214.58 6.87L214.58 6.87Q214.55 7.14 214.55 7.28L214.55 7.28L214.55 7.28Q214.55 7.48 214.63 7.52L214.63 7.52L214.63 7.52Q214.70 7.56 215.12 7.56L215.12 7.56L215.61 7.56L215.61 7.56Q215.92 7.56 216.14 7.53L216.14 7.53L216.14 7.53Q216.36 7.50 216.44 7.46L216.44 7.46L216.44 7.46Q216.52 7.42 216.59 7.39L216.59 7.39L216.59 7.39Q216.65 7.36 216.69 7.36L216.69 7.36L216.69 7.36Q216.83 7.36 216.83 7.52L216.83 7.52L216.83 7.52Q216.83 7.63 216.65 7.96L216.65 7.96L216.65 7.96Q216.47 8.29 216.38 8.29L216.38 8.29L216.38 8.29Q216.17 8.29 215.98 8.28L215.98 8.28L215.98 8.28Q215.78 8.27 215.64 8.27L215.64 8.27L215.64 8.27Q215.50 8.26 215.38 8.25L215.38 8.25L215.38 8.25Q215.25 8.23 215.17 8.22L215.17 8.22L215.17 8.22Q215.08 8.22 215.02 8.21L215.02 8.21L215.02 8.21Q214.96 8.20 214.93 8.20L214.93 8.20L214.90 8.19L214.90 8.19Q214.63 8.19 214.56 8.27L214.56 8.27L214.56 8.27Q214.48 8.36 214.48 8.65L214.48 8.65L214.48 8.65Q214.48 8.81 214.45 9.82L214.45 9.82L214.45 9.82Q214.42 10.84 214.42 11.26L214.42 11.26L214.42 11.26Q214.42 12.17 214.66 12.52L214.66 12.52L214.66 12.52Q214.89 12.88 215.63 12.88L215.63 12.88L215.63 12.88Q215.92 12.88 216.28 12.75L216.28 12.75L216.28 12.75Q216.64 12.61 216.66 12.61L216.66 12.61L216.66 12.61Q216.80 12.61 216.80 12.78L216.80 12.78L216.80 12.78Q216.80 12.98 216.32 13.28L216.32 13.28L216.32 13.28Q215.84 13.58 215.28 13.58L215.28 13.58L215.28 13.58Q213.39 13.58 213.39 11.94L213.39 11.94L213.39 11.73L213.39 11.73Q213.39 11.19 213.40 10.40L213.40 10.40L213.40 10.40Q213.42 9.62 213.43 9.05L213.43 9.05L213.43 9.05Q213.44 8.48 213.44 8.47L213.44 8.47L213.44 8.47Q213.44 8.33 213.39 8.29L213.39 8.29L213.39 8.29Q213.33 8.25 213.15 8.25L213.15 8.25L213.15 8.25Q213.09 8.25 213.00 8.25L213.00 8.25L213.00 8.25Q212.91 8.26 212.88 8.26L212.88 8.26L212.88 8.26Q212.65 8.26 212.65 8.06ZM224.60 10.60L224.60 10.60L224.60 10.60Q224.60 9.31 225.48 8.36L225.48 8.36L225.48 8.36Q226.35 7.41 227.91 7.41L227.91 7.41L227.91 7.41Q229.22 7.41 230.20 8.23L230.20 8.23L230.20 8.23Q231.17 9.06 231.17 10.51L231.17 10.51L231.17 10.51Q231.17 12.00 230.17 12.84L230.17 12.84L230.17 12.84Q229.17 13.69 227.81 13.69L227.81 13.69L227.81 13.69Q226.30 13.69 225.45 12.77L225.45 12.77L225.45 12.77Q224.60 11.86 224.60 10.60ZM225.71 10.12L225.71 10.12L225.71 10.12Q225.71 11.56 226.48 12.42L226.48 12.42L226.48 12.42Q227.25 13.27 228.23 13.27L228.23 13.27L228.23 13.27Q229.03 13.27 229.57 12.66L229.57 12.66L229.57 12.66Q230.12 12.05 230.12 10.93L230.12 10.93L230.12 10.93Q230.12 9.70 229.45 8.74L229.45 8.74L229.45 8.74Q228.77 7.78 227.57 7.78L227.57 7.78L227.57 7.78Q226.84 7.78 226.28 8.36L226.28 8.36L226.28 8.36Q225.71 8.93 225.71 10.12ZM239.02 8.12L239.02 8.12L239.02 8.12Q239.02 7.97 239.21 7.89L239.21 7.89L239.21 7.89Q239.40 7.81 239.91 7.65L239.91 7.65L239.91 7.65Q240.42 7.49 240.87 7.28L240.87 7.28L240.87 7.28Q241.01 7.22 241.07 7.22L241.07 7.22L241.07 7.22Q241.25 7.22 241.25 7.50L241.25 7.50L241.25 7.50Q241.25 7.56 241.24 7.69L241.24 7.69L241.24 7.69Q241.23 7.81 241.23 7.88L241.23 7.88L241.23 7.88Q241.23 8.18 241.25 8.30L241.25 8.30L241.25 8.30Q241.26 8.43 241.28 8.46L241.28 8.46L241.28 8.46Q241.30 8.48 241.35 8.48L241.35 8.48L241.35 8.48Q241.37 8.48 241.56 8.20L241.56 8.20L241.56 8.20Q241.74 7.92 242.07 7.64L242.07 7.64L242.07 7.64Q242.41 7.35 242.82 7.35L242.82 7.35L242.82 7.35Q243.07 7.35 243.47 7.62L243.47 7.62L243.47 7.62Q243.77 7.81 243.77 8.02L243.77 8.02L243.77 8.02Q243.77 8.27 243.66 8.47L243.66 8.47L243.66 8.47Q243.54 8.67 243.44 8.74L243.44 8.74L243.44 8.74Q243.33 8.81 243.29 8.81L243.29 8.81L243.29 8.81Q243.18 8.81 242.89 8.64L242.89 8.64L242.89 8.64Q242.61 8.47 242.23 8.47L242.23 8.47L242.23 8.47Q241.85 8.47 241.52 8.78L241.52 8.78L241.52 8.78Q241.19 9.09 241.19 9.34L241.19 9.34L241.19 10.79L241.19 10.79Q241.19 11.30 241.20 11.61L241.20 11.61L241.20 11.61Q241.21 11.93 241.21 12.00L241.21 12.00L241.21 12.00Q241.21 12.08 241.21 12.14L241.21 12.14L241.21 12.14Q241.22 12.19 241.22 12.26L241.22 12.26L241.22 12.26Q241.22 12.56 241.42 12.77L241.42 12.77L241.42 12.77Q241.61 12.98 241.88 13.02L241.88 13.02L241.88 13.02Q241.96 13.03 242.09 13.05L242.09 13.05L242.09 13.05Q242.21 13.06 242.28 13.07L242.28 13.07L242.28 13.07Q242.35 13.08 242.44 13.10L242.44 13.10L242.44 13.10Q242.52 13.12 242.56 13.16L242.56 13.16L242.56 13.16Q242.59 13.20 242.59 13.26L242.59 13.26L242.59 13.26Q242.59 13.48 242.42 13.48L242.42 13.48L242.42 13.48Q242.19 13.48 241.78 13.45L241.78 13.45L241.78 13.45Q241.37 13.41 241.23 13.41L241.23 13.41L241.23 13.41Q240.79 13.41 240.31 13.45L240.31 13.45L240.31 13.45Q239.83 13.48 239.78 13.48L239.78 13.48L239.78 13.48Q239.64 13.48 239.57 13.45L239.57 13.45L239.57 13.45Q239.50 13.43 239.48 13.40L239.48 13.40L239.48 13.40Q239.47 13.37 239.47 13.31L239.47 13.31L239.47 13.31Q239.47 13.13 239.65 13.08L239.65 13.08L239.65 13.08Q240.02 12.99 240.09 12.72L240.09 12.72L240.09 12.72Q240.17 12.45 240.17 11.55L240.17 11.55L240.17 11.55Q240.17 10.64 240.16 10.05L240.16 10.05L240.16 10.05Q240.16 9.46 240.16 9.30L240.16 9.30L240.16 9.30Q240.16 9.14 240.15 9.04L240.15 9.04L240.15 9.04Q240.14 8.95 240.14 8.88L240.14 8.88L240.14 8.88Q240.14 8.72 240.10 8.62L240.10 8.62L240.10 8.62Q240.06 8.53 239.90 8.44L239.90 8.44L239.90 8.44Q239.74 8.36 239.44 8.36L239.44 8.36L239.44 8.36Q239.43 8.36 239.37 8.35L239.37 8.35L239.37 8.35Q239.32 8.34 239.29 8.34L239.29 8.34L239.29 8.34Q239.02 8.34 239.02 8.12Z"></path></g></svg>